<?xml version="1.0" encoding="utf-8"?>
<!-- Generator: Adobe Illustrator 17.0.0, SVG Export Plug-In . SVG Version: 6.00 Build 0)  -->
<!DOCTYPE svg PUBLIC "-//W3C//DTD SVG 1.1//EN" "http://www.w3.org/Graphics/SVG/1.1/DTD/svg11.dtd">
<svg version="1.1" id="Layer_1" xmlns="http://www.w3.org/2000/svg" xmlns:xlink="http://www.w3.org/1999/xlink" x="0px" y="0px"
	 width="200px" height="200px" viewBox="0 0 200 200" style="enable-background:new 0 0 200 200;" xml:space="preserve">
<g>
	<path d="M189,158.8c-5.3,0.8-10.8,0.9-17.4,1.5c4.1,6,8.3,12.1,12.5,18.2c-3.5,0.7-6.9,1.1-10.2,2.1c-6.9,2.1-11.8,6.9-14.8,13.3
		c-1.6,3.4-3.8,4.3-7.4,4.2c-9.6-0.3-19.3-0.1-28.4-0.1c-2.6-6-4.9-11.4-7.4-16.8c-2.2-4.7-5.8-5.5-11.1-4.9
		c-7,0.8-14.2,0.3-21.2-0.6c-5.2-0.7-6.9-4.3-6.5-9.5c0.1-1.9-0.2-4.6-1.4-5.7c-2.9-2.8-3.5-5.1,0.3-8c-5.2-3.2-5.8-6.5-1.1-10.5
		c2.2-1.8,0.5-3.4-1.5-4.6c-8.1-4.7-8.1-6.9-1.8-13.8c4.8-5.2,8.3-10.6,5.1-18.8c-1.5-4,0.1-10,2-14.3c3.5-7.8,6.9-14.6,1.1-23.3
		c-5.4-8.1-5.8-17.5-1.2-26.7c6.3-12.6,14.7-22.7,28.5-27.7c24-8.7,48.1-9,72.3-2.1c6.4,1.8,12.3,5.5,18.5,8.2
		c0.5,0.2,1.3,0.1,1.9,0.1c0,45.7,0,91.3,0,137C196.3,157,192.7,158.3,189,158.8z M131,137.6c-1,1.7-2.4,3.2-2.9,5
		c-2.4,8.6-1,16.9,3.4,24.5c1,1.7,3.6,3.7,5.3,3.6c1.6-0.1,3.8-2.6,4.5-4.5c3.1-8.6,1.9-17-2.3-25c-0.9-1.7-2-3.2-3.9-4.1
		c4.2,10.3,6.8,20.1,1.5,30.4C129,158.6,129.7,148.5,131,137.6z"/>
</g>
</svg>
