<?xml version="1.0" encoding="utf-8"?>
<!-- Generator: Adobe Illustrator 17.0.0, SVG Export Plug-In . SVG Version: 6.00 Build 0)  -->
<!DOCTYPE svg PUBLIC "-//W3C//DTD SVG 1.1//EN" "http://www.w3.org/Graphics/SVG/1.1/DTD/svg11.dtd">
<svg version="1.1" id="Layer_1" xmlns="http://www.w3.org/2000/svg" xmlns:xlink="http://www.w3.org/1999/xlink" x="0px" y="0px"
	 width="137px" height="200px" viewBox="0 0 137 200" style="enable-background:new 0 0 137 200;" xml:space="preserve">
<style type="text/css">
	.st0{fill:#FBAD18;}
</style>
<g>
	<path class="st0" d="M13.3,152.5c-4.8-3.2-6.3-6.2-1.5-10c2.2-1.8,1.5-3.6-1-5c-8.3-5-8.3-6.7-1.7-14.1c4.6-5.1,7.9-10.4,4.9-18.4
		c-1.5-4,0.5-9.7,1.9-14.4c1.2-4.1,4.9-7.7,5.2-11.7c0.2-3.7-2.5-7.6-4.3-11.3c-4.1-8.7-5.6-17.4-1.2-26.4
		c6.1-12.5,14.1-22.8,27.8-27.9c24.4-9.1,49-9.5,73.8-2.3c6.1,1.8,11.8,5,17.5,8c1.3,0.7,2.3,3.1,2.3,4.7c0.1,42.7,0.1,85.3,0.2,128
		c0,3.3-1.2,4.6-4.2,5.5c-7.7,2.3-15.3,4.5-23.5,2.1c-0.3,0.4-0.6,0.8-0.9,1.1c4.2,6,8.4,12.1,12.8,18.4c-0.7,0.2-1.2,0.4-1.8,0.4
		c-10.8,0.4-18.7,5.5-23.5,15.1c-1.5,2.9-3.2,4-6.5,3.9c-9.8-0.3-19.6-0.1-29-0.1c-2.7-6.1-5.2-11.9-7.9-17.5c-2-4.1-5.3-4.8-10-4.3
		c-7,0.7-14.2,0.5-21.3-0.3c-5.9-0.7-7.5-4.2-7-10c0.2-1.9-0.4-4.5-1.7-5.6C9.7,157.5,9.6,155.3,13.3,152.5z M68.9,138.2
		c-0.3-0.3-0.7-0.7-1-1c-0.5,0.8-1,1.7-1.5,2.5c-4.1,6.9-2.1,23.5,3.6,29.3c3.1,3.1,6.4,2.6,8.1-1.8c3.7-9.3,2.5-18.3-2.4-26.8
		c-0.8-1.3-2.4-2.1-3.6-3.2c4.4,10.3,7.2,20,1.4,30.3C66.3,158.6,66.7,148.6,68.9,138.2z"/>
</g>
</svg>
